<mxfile host="65bd71144e">
    <diagram id="PSwkkRA805_FCD7kwvl0" name="Page-1">
        <mxGraphModel dx="2236" dy="1176" grid="1" gridSize="10" guides="1" tooltips="1" connect="1" arrows="1" fold="1" page="1" pageScale="1" pageWidth="827" pageHeight="1169" background="#ffffff" math="0" shadow="0">
            <root>
                <mxCell id="0"/>
                <mxCell id="1" parent="0"/>
                <mxCell id="16" value="" style="rounded=1;whiteSpace=wrap;html=1;fillColor=#dae8fc;strokeColor=#6c8ebf;" parent="1" vertex="1">
                    <mxGeometry x="87.5" y="420" width="722.5" height="330" as="geometry"/>
                </mxCell>
                <mxCell id="wMrmKSV0DdAB6P1zYzrE-1" value="Application" style="rounded=1;whiteSpace=wrap;html=1;strokeWidth=2;fillColor=#f5f5f5;fontColor=#000000;strokeColor=#666666;" parent="1" vertex="1">
                    <mxGeometry x="-160" y="435" width="190" height="70" as="geometry"/>
                </mxCell>
                <mxCell id="wMrmKSV0DdAB6P1zYzrE-3" value="OpenTelemetry&lt;br&gt;API and SDK" style="rounded=1;whiteSpace=wrap;html=1;strokeWidth=2;fillColor=#dae8fc;strokeColor=#6c8ebf;fontColor=#000000;" parent="1" vertex="1">
                    <mxGeometry x="-137.5" y="485" width="145" height="60" as="geometry"/>
                </mxCell>
                <mxCell id="wMrmKSV0DdAB6P1zYzrE-5" value="Tempo" style="rounded=1;whiteSpace=wrap;html=1;strokeWidth=2;fillColor=#d5e8d4;strokeColor=#82b366;fontColor=#000000;" parent="1" vertex="1">
                    <mxGeometry x="827" y="490" width="140" height="50" as="geometry"/>
                </mxCell>
                <mxCell id="6" value="Prometheus" style="rounded=1;whiteSpace=wrap;html=1;strokeWidth=2;fillColor=#f8cecc;strokeColor=#b85450;fontColor=#000000;" parent="1" vertex="1">
                    <mxGeometry x="827" y="660" width="140" height="50" as="geometry"/>
                </mxCell>
                <mxCell id="17" value="" style="rounded=0;whiteSpace=wrap;html=1;fillColor=#dae8fc;strokeColor=#6c8ebf;dashed=1;dashPattern=12 12;" parent="1" vertex="1">
                    <mxGeometry x="153.75" y="460" width="576.25" height="150" as="geometry"/>
                </mxCell>
                <mxCell id="18" value="" style="rounded=0;whiteSpace=wrap;html=1;fillColor=#dae8fc;strokeColor=#6c8ebf;dashed=1;dashPattern=12 12;" parent="1" vertex="1">
                    <mxGeometry x="153.75" y="630" width="576.25" height="100" as="geometry"/>
                </mxCell>
                <mxCell id="19" value="Metrics Pipeline" style="text;html=1;strokeColor=none;fillColor=none;align=center;verticalAlign=middle;whiteSpace=wrap;rounded=0;dashed=1;dashPattern=12 12;fontColor=#000000;" parent="1" vertex="1">
                    <mxGeometry x="153.75" y="630" width="96.25" height="30" as="geometry"/>
                </mxCell>
                <mxCell id="20" value="Traces Pipeline" style="text;html=1;strokeColor=none;fillColor=none;align=center;verticalAlign=middle;whiteSpace=wrap;rounded=0;dashed=1;dashPattern=12 12;fontColor=#000000;" parent="1" vertex="1">
                    <mxGeometry x="153.75" y="460" width="96.25" height="30" as="geometry"/>
                </mxCell>
                <mxCell id="22" value="Processor&lt;br&gt;(N/A)" style="rounded=1;whiteSpace=wrap;html=1;fillColor=#f8cecc;strokeColor=#b85450;fontColor=#000000;" parent="1" vertex="1">
                    <mxGeometry x="362.5" y="660" width="140" height="50" as="geometry"/>
                </mxCell>
                <mxCell id="23" value="Exporter&lt;br&gt;(Prometheus)" style="rounded=1;whiteSpace=wrap;html=1;fillColor=#f8cecc;strokeColor=#b85450;fontColor=#000000;" parent="1" vertex="1">
                    <mxGeometry x="560" y="660" width="140" height="50" as="geometry"/>
                </mxCell>
                <mxCell id="25" value="Receiver&lt;br&gt;(otlp)" style="rounded=1;whiteSpace=wrap;html=1;fillColor=#d5e8d4;strokeColor=#82b366;fontColor=#000000;" parent="1" vertex="1">
                    <mxGeometry x="168.75" y="490" width="140" height="50" as="geometry"/>
                </mxCell>
                <mxCell id="26" value="Processor&lt;br&gt;(batch)" style="rounded=1;whiteSpace=wrap;html=1;fillColor=#d5e8d4;strokeColor=#82b366;fontColor=#000000;" parent="1" vertex="1">
                    <mxGeometry x="362.5" y="490" width="140" height="50" as="geometry"/>
                </mxCell>
                <mxCell id="27" value="Exporter&lt;br&gt;(otlp)" style="rounded=1;whiteSpace=wrap;html=1;fillColor=#d5e8d4;strokeColor=#82b366;fontColor=#000000;" parent="1" vertex="1">
                    <mxGeometry x="558.75" y="490" width="140" height="50" as="geometry"/>
                </mxCell>
                <mxCell id="4" style="edgeStyle=none;html=1;exitX=1;exitY=0.5;exitDx=0;exitDy=0;fontColor=#000000;strokeColor=#000000;entryX=0;entryY=0.5;entryDx=0;entryDy=0;" parent="1" source="wMrmKSV0DdAB6P1zYzrE-3" target="25" edge="1">
                    <mxGeometry relative="1" as="geometry"/>
                </mxCell>
                <mxCell id="28" value="OpenTelemetry Collector" style="text;html=1;strokeColor=none;fillColor=none;align=center;verticalAlign=middle;whiteSpace=wrap;rounded=0;dashed=1;dashPattern=12 12;fontColor=#000000;" parent="1" vertex="1">
                    <mxGeometry x="376.56" y="420" width="144.37" height="30" as="geometry"/>
                </mxCell>
                <mxCell id="29" style="edgeStyle=none;html=1;exitX=1;exitY=0.5;exitDx=0;exitDy=0;fontColor=#000000;strokeColor=#000000;entryX=0;entryY=0.5;entryDx=0;entryDy=0;" parent="1" source="25" target="26" edge="1">
                    <mxGeometry relative="1" as="geometry">
                        <mxPoint x="17.5" y="530" as="sourcePoint"/>
                        <mxPoint x="178.75" y="530" as="targetPoint"/>
                    </mxGeometry>
                </mxCell>
                <mxCell id="30" style="edgeStyle=none;html=1;exitX=1;exitY=0.5;exitDx=0;exitDy=0;fontColor=#000000;strokeColor=#000000;entryX=0;entryY=0.5;entryDx=0;entryDy=0;" parent="1" source="26" target="27" edge="1">
                    <mxGeometry relative="1" as="geometry">
                        <mxPoint x="298.75" y="530" as="sourcePoint"/>
                        <mxPoint x="372.5" y="530" as="targetPoint"/>
                    </mxGeometry>
                </mxCell>
                <mxCell id="32" value="Connector as Exporter&lt;br&gt;(spanmetrics)" style="rounded=1;whiteSpace=wrap;html=1;fillColor=#e1d5e7;strokeColor=#9673a6;fontColor=#000000;" parent="1" vertex="1">
                    <mxGeometry x="560" y="550" width="140" height="50" as="geometry"/>
                </mxCell>
                <mxCell id="33" value="Connector as Receiver&lt;br&gt;(spanmetrics)" style="rounded=1;whiteSpace=wrap;html=1;fillColor=#e1d5e7;strokeColor=#9673a6;fontColor=#000000;" parent="1" vertex="1">
                    <mxGeometry x="167.5" y="660" width="141.25" height="50" as="geometry"/>
                </mxCell>
                <mxCell id="35" style="edgeStyle=orthogonalEdgeStyle;html=1;exitX=1;exitY=0.5;exitDx=0;exitDy=0;fontColor=#000000;strokeColor=#000000;entryX=0;entryY=0.5;entryDx=0;entryDy=0;" parent="1" source="26" target="32" edge="1">
                    <mxGeometry relative="1" as="geometry">
                        <mxPoint x="512.5000000000005" y="525" as="sourcePoint"/>
                        <mxPoint x="568.7499999999995" y="525" as="targetPoint"/>
                    </mxGeometry>
                </mxCell>
                <mxCell id="36" style="edgeStyle=none;html=1;exitX=1;exitY=0.5;exitDx=0;exitDy=0;fontColor=#000000;strokeColor=#000000;entryX=0;entryY=0.5;entryDx=0;entryDy=0;" parent="1" source="33" target="22" edge="1">
                    <mxGeometry relative="1" as="geometry">
                        <mxPoint x="330" y="598.8199999999999" as="sourcePoint"/>
                        <mxPoint x="383.75" y="598.8199999999999" as="targetPoint"/>
                    </mxGeometry>
                </mxCell>
                <mxCell id="37" style="edgeStyle=none;html=1;exitX=1;exitY=0.5;exitDx=0;exitDy=0;fontColor=#000000;strokeColor=#000000;entryX=0;entryY=0.5;entryDx=0;entryDy=0;" parent="1" source="22" target="23" edge="1">
                    <mxGeometry relative="1" as="geometry">
                        <mxPoint x="328.75" y="535" as="sourcePoint"/>
                        <mxPoint x="382.5" y="535" as="targetPoint"/>
                    </mxGeometry>
                </mxCell>
                <mxCell id="38" style="edgeStyle=none;html=1;exitX=1;exitY=0.5;exitDx=0;exitDy=0;fontColor=#000000;strokeColor=#000000;entryX=0;entryY=0.5;entryDx=0;entryDy=0;startArrow=classic;startFill=1;endArrow=none;endFill=0;" parent="1" source="23" target="6" edge="1">
                    <mxGeometry relative="1" as="geometry">
                        <mxPoint x="512.5" y="695" as="sourcePoint"/>
                        <mxPoint x="570" y="695" as="targetPoint"/>
                    </mxGeometry>
                </mxCell>
                <mxCell id="39" style="edgeStyle=none;html=1;exitX=1;exitY=0.5;exitDx=0;exitDy=0;fontColor=#000000;strokeColor=#000000;" parent="1" source="27" target="wMrmKSV0DdAB6P1zYzrE-5" edge="1">
                    <mxGeometry relative="1" as="geometry">
                        <mxPoint x="710" y="695" as="sourcePoint"/>
                        <mxPoint x="836.9999999999995" y="695" as="targetPoint"/>
                    </mxGeometry>
                </mxCell>
                <mxCell id="40" value="Push" style="text;html=1;strokeColor=none;fillColor=none;align=center;verticalAlign=middle;whiteSpace=wrap;rounded=0;dashed=1;dashPattern=12 12;fontColor=#000000;" parent="1" vertex="1">
                    <mxGeometry x="71.25" y="485" width="96.25" height="30" as="geometry"/>
                </mxCell>
                <mxCell id="41" value="Push" style="text;html=1;strokeColor=none;fillColor=none;align=center;verticalAlign=middle;whiteSpace=wrap;rounded=0;dashed=1;dashPattern=12 12;fontColor=#000000;" parent="1" vertex="1">
                    <mxGeometry x="713.75" y="485" width="96.25" height="30" as="geometry"/>
                </mxCell>
                <mxCell id="42" value="Scrape" style="text;html=1;strokeColor=none;fillColor=none;align=center;verticalAlign=middle;whiteSpace=wrap;rounded=0;dashed=1;dashPattern=12 12;fontColor=#000000;" parent="1" vertex="1">
                    <mxGeometry x="713.75" y="654" width="96.25" height="30" as="geometry"/>
                </mxCell>
                <mxCell id="44" style="edgeStyle=orthogonalEdgeStyle;html=1;exitX=0.5;exitY=1;exitDx=0;exitDy=0;fontColor=#000000;strokeColor=#000000;entryX=0.75;entryY=0;entryDx=0;entryDy=0;dashed=1;" parent="1" source="32" target="33" edge="1">
                    <mxGeometry relative="1" as="geometry">
                        <mxPoint x="512.5" y="525" as="sourcePoint"/>
                        <mxPoint x="570" y="585" as="targetPoint"/>
                        <Array as="points">
                            <mxPoint x="630" y="640"/>
                            <mxPoint x="273" y="640"/>
                        </Array>
                    </mxGeometry>
                </mxCell>
            </root>
        </mxGraphModel>
    </diagram>
</mxfile>
